<?xml version="1.0" encoding="utf-8"?>
<!-- Generator: Adobe Illustrator 18.1.1, SVG Export Plug-In . SVG Version: 6.00 Build 0)  -->
<svg version="1.1" xmlns="http://www.w3.org/2000/svg" xmlns:xlink="http://www.w3.org/1999/xlink" x="0px" y="0px"
	 viewBox="0 0 216 47.9" enable-background="new 0 0 216 47.9" xml:space="preserve">
<g id="Layer_1" display="none">
	<g display="inline">
		<polygon fill="#F37024" points="84.5,195.8 111.2,195.8 97.9,165 		"/>
		<polygon fill="#F37024" points="127,195.8 127,167.1 113,195.8 		"/>
		<path fill="#F37024" d="M150.5,66.7H66.8c-12.5,0-22.7,10.2-22.7,22.7v83.6c0,12.5,10.2,22.7,22.7,22.7h15.9l-25.6-52.6h13.2
			l13.3,29l14.3-33.6l14.4,33.6l13.1-29h13.1l-0.1,0.1h0.1v4.9c2.2-2.4,4.1-4.1,5.7-5c1.7-0.9,3.7-1.4,6-1.4c3.1,0,6.3,1.1,9.7,3.2
			l-5.4,11.5c-2.2-1.7-4.4-2.6-6.5-2.6c-6.4,0-9.6,5.2-9.6,15.5v26.3h11.8c12.5,0,22.7-10.2,22.7-22.7V89.5
			C173.2,77,163,66.7,150.5,66.7z"/>
	</g>
	<g display="inline">
		<path d="M18.2,20.6l6,13.7l6.3-15.3l6.3,15.3l6-13.7h3.9l-10,21.6l-6.2-15.1l-6.2,15.1l-9.9-21.6H18.2z"/>
		<path d="M65.9,20.6h3.5v20.2h-3.5V38c-1.2,1.5-3.4,3.4-6.9,3.4c-5.1,0-9.8-3.6-9.8-10.7c0-7,4.7-10.6,9.8-10.6
			c3.9,0,6,2.1,6.9,3.4V20.6z M52.8,30.7c0,4.3,2.4,7.6,6.6,7.6c4.3,0,6.7-3.6,6.7-7.5c0-5.2-3.6-7.5-6.7-7.5
			C56,23.3,52.8,25.8,52.8,30.7z"/>
		<path d="M84.4,25.3c-0.5-1.2-1.5-2-2.8-2c-1.3,0-2.4,0.7-2.4,2.3c0,1.5,1,1.9,3.3,2.9c2.9,1.2,4.3,2.1,5.1,3.1
			c0.9,1.1,1.1,2.1,1.1,3.3c0,4.2-3.1,6.6-7,6.6c-0.8,0-5.4-0.1-7.1-5.2l3-1.3c0.4,1.1,1.6,3.3,4.1,3.3c2.3,0,3.3-1.7,3.3-3.2
			c0-1.9-1.4-2.5-3.3-3.4c-2.4-1.1-4-1.9-4.9-3c-0.8-1-0.9-1.9-0.9-3c0-3.6,2.5-5.7,5.9-5.7c1.1,0,3.9,0.2,5.6,3.7L84.4,25.3z"/>
		<path d="M111.1,35.7c-0.6,1.1-1.5,2.3-2.5,3.3c-1.9,1.7-4.1,2.5-6.7,2.5c-4.9,0-10-3.1-10-10.6c0-6,3.7-10.7,9.8-10.7
			c3.9,0,6.4,1.9,7.6,3.7c1.3,1.8,2,4.9,1.9,7.6H95.6c0,4.2,2.9,6.9,6.4,6.9c1.7,0,3-0.5,4.1-1.5c0.9-0.8,1.7-1.8,2.1-2.8
			L111.1,35.7z M107.7,28.5c-0.6-3.2-3-5.3-5.9-5.3s-5.4,2.2-5.9,5.3H107.7z"/>
		<path d="M120.1,5.3v35.5h-3.5V5.3H120.1z"/>
		<path fill="#F37024" d="M126.8,20.6h3.5v2.2c0.3-0.5,1.8-2.7,4.6-2.7c1.1,0,2.2,0.4,3.1,0.8l-1.7,3.2c-0.8-0.5-1.5-0.7-2-0.7
			c-1.4,0-2.3,0.6-2.8,1.3c-0.6,0.8-1.2,2.1-1.2,5.5v10.7h-3.5V20.6z"/>
		<path fill="#F37024" d="M138.8,30.8c0-6.1,4.5-10.7,10.7-10.7c6.2,0,10.7,4.5,10.7,10.7s-4.6,10.6-10.7,10.6
			C143.3,41.4,138.8,36.9,138.8,30.8z M142.4,30.8c0,5,3.5,7.5,7.1,7.5c3.7,0,7.1-2.6,7.1-7.5c0-5-3.4-7.6-7.1-7.6
			C145.8,23.3,142.4,25.9,142.4,30.8z"/>
		<path fill="#F37024" d="M173.9,25.3c-0.5-1.2-1.5-2-2.8-2c-1.3,0-2.4,0.7-2.4,2.3c0,1.5,1,1.9,3.3,2.9c2.9,1.2,4.3,2.1,5.1,3.1
			c0.9,1.1,1.1,2.1,1.1,3.3c0,4.2-3.1,6.6-7,6.6c-0.8,0-5.4-0.1-7.1-5.2l3-1.3c0.4,1.1,1.6,3.3,4.1,3.3c2.3,0,3.3-1.7,3.3-3.2
			c0-1.9-1.4-2.5-3.3-3.4c-2.4-1.1-4-1.9-4.9-3c-0.8-1-0.9-1.9-0.9-3c0-3.6,2.5-5.7,5.9-5.7c1.1,0,3.9,0.2,5.6,3.7L173.9,25.3z"/>
		<path fill="#F37024" d="M198.2,20.6h3.5v20.2h-3.5V38c-1.2,1.5-3.4,3.4-6.9,3.4c-5.1,0-9.8-3.6-9.8-10.7c0-7,4.7-10.6,9.8-10.6
			c3.9,0,6,2.1,6.9,3.4V20.6z M185,30.7c0,4.3,2.4,7.6,6.6,7.6c4.3,0,6.7-3.6,6.7-7.5c0-5.2-3.6-7.5-6.7-7.5
			C188.2,23.3,185,25.8,185,30.7z"/>
	</g>
</g>
<g id="Layer_2" display="none">
	<path display="inline" fill="#F37024" d="M152.1,173.4H67.8c-11.9,0-21.6-9.7-21.6-21.6V67.5c0-11.9,9.7-21.6,21.6-21.6h84.3
		c11.9,0,21.6,9.7,21.6,21.6v84.3C173.7,163.7,164,173.4,152.1,173.4z"/>
	
		<text transform="matrix(0.9653 0 0 1 147.576 142.8682)" display="inline" fill="#FFFFFF" font-family="'MostraNuova'" font-size="62.1553">A</text>
</g>
<g id="Layer_3" display="none">
	
		<text transform="matrix(1 0 0 1 39.5098 130.9741)" display="inline" fill="#FFFFFF" font-family="'MostraNuova'" font-size="63.2329">R</text>
	
		<text transform="matrix(1 0 0 1 49.6524 159.8764)" display="inline" fill="#FFFFFF" font-family="'MostraNuova'" font-size="63.6928">O</text>
	
		<text transform="matrix(1 0 0 1 77.3639 173.2473)" display="inline" fill="#FFFFFF" font-family="'MostraNuova'" font-size="62.5145">S</text>
</g>
<g id="Layer_4" display="none">
	<path display="inline" fill="#F37024" d="M153.5,166.2H69.2c-11.9,0-21.6-9.7-21.6-21.6V60.3c0-11.9,9.7-21.6,21.6-21.6h84.3
		c11.9,0,21.6,9.7,21.6,21.6v84.3C175.1,156.5,165.4,166.2,153.5,166.2z"/>
	
		<text transform="matrix(1 0 0 1 40.904 123.7155)" display="inline" fill="#FFFFFF" font-family="'MostraNuova'" font-size="63.2329">R</text>
	<text transform="matrix(1 0 0 1 51.0466 151.3562)" display="inline" fill="#FFFFFF" font-family="'MostraNuova'" font-size="60">C</text>
</g>
<g id="Layer_5">
	<g>
		<path fill="#F37024" d="M26.5,17.9h-0.2c-2.5,0-5.2,1.7-6.2,3.9v19.3h-3.9V14.8h3.9V17c1.2-1.7,3.5-3.1,6.4-3.1V17.9z"/>
		<path fill="#F37024" d="M28.9,28c0-7.7,6.2-14,14-14s14,6.2,14,14c0,7.7-6.2,14-14,14S28.9,35.7,28.9,28z M42.9,38
			C48.4,38,53,33.5,53,28c0-5.5-4.6-10.1-10.1-10.1S32.8,22.4,32.8,28C32.8,33.5,37.4,38,42.9,38z"/>
		<path fill="#F37024" d="M62.9,41.9c-0.4,0-0.9,0-1.2-0.1v-4c0.4,0.2,0.9,0.2,1.2,0.2c2.6,0,4.3-1.9,4.3-4.3
			c0-4.2-5.2-6.4-5.2-12.2c0-4.3,3.4-7.6,8-7.6h0.2v3.9H70c-2.1,0-3.9,1.6-3.9,4c0,4.3,5.2,6,5.2,12.1
			C71.2,38.5,67.7,41.9,62.9,41.9z"/>
		<path fill="#F37024" d="M97.3,39.2c-2,1.7-4.6,2.8-7.7,2.8c-7.3,0-13.6-6.2-13.6-14c0-7.7,6.2-14,13.6-14c3.1,0,5.7,1,7.7,2.8
			v-1.9h3.9v26.3h-3.9V39.2z M97.3,21.1c-1.9-1.9-4.4-3.2-7.3-3.2c-5.5,0-10.1,4.6-10.1,10.1c0,5.5,4.6,10,10.1,10
			c2.9,0,5.4-1.2,7.3-3.2V21.1z"/>
		<path d="M131.4,37.9c-2.5,2.5-6,4.1-9.8,4.1c-7.7,0-14-6.2-14-14c0-7.7,6.2-14,14-14c3.8,0,7.3,1.6,9.9,4.1l-2.8,2.7
			c-1.9-1.7-4.3-2.9-7.1-2.9c-5.5,0-10.1,4.6-10.1,10.1c0,5.5,4.6,10.1,10.1,10.1c2.8,0,5.2-1.1,7.1-2.9L131.4,37.9z"/>
		<path d="M141,17c1.3-1.6,3.5-3,6.4-3c4.4,0,7.8,3.3,7.8,8.8v18.4h-3.9V23.2c0-3.5-2.1-5.3-4.9-5.3c-2.3,0-4.5,1.4-5.4,3.3v19.9
			h-3.9V0h3.9V17z"/>
		<path d="M161.5,28c0-7.7,6.2-14,14-14c7.7,0,14,6.2,14,14c0,7.7-6.2,14-14,14C167.7,41.9,161.5,35.7,161.5,28z M175.5,38
			c5.5,0,10.1-4.6,10.1-10.1c0-5.5-4.6-10.1-10.1-10.1c-5.5,0-10.1,4.6-10.1,10.1C165.4,33.5,169.9,38,175.5,38z"/>
		<path d="M195.7,10.1v-6h3.9v6H195.7z M195.7,41.1V14.8h3.9v26.3H195.7z"/>
	</g>
</g>
</svg>
