<?xml version="1.0" encoding="utf-8"?>
<!-- Generator: Adobe Illustrator 18.1.1, SVG Export Plug-In . SVG Version: 6.00 Build 0)  -->
<svg version="1.1" xmlns="http://www.w3.org/2000/svg" xmlns:xlink="http://www.w3.org/1999/xlink" x="0px" y="0px"
	 viewBox="0 0 144 144" enable-background="new 0 0 144 144" xml:space="preserve">
<g id="Layer_1" display="none">
	<g display="inline">
		<polygon fill="#F37024" points="55.3,226.8 82,226.8 68.7,196.1 		"/>
		<polygon fill="#F37024" points="97.7,226.8 97.7,198.1 83.7,226.8 		"/>
		<path fill="#F37024" d="M121.2,97.8H37.6c-12.5,0-22.7,10.2-22.7,22.7v83.6c0,12.5,10.2,22.7,22.7,22.7h15.9l-25.6-52.6h13.2
			l13.3,29l14.3-33.6l14.4,33.6l13.1-29h13.1l-0.1,0.1h0.1v4.9c2.2-2.4,4.1-4.1,5.7-5c1.7-0.9,3.7-1.4,6-1.4c3.1,0,6.3,1.1,9.7,3.2
			l-5.4,11.5c-2.2-1.7-4.4-2.6-6.5-2.6c-6.4,0-9.6,5.2-9.6,15.5v26.3h11.8c12.5,0,22.7-10.2,22.7-22.7v-83.6
			C143.9,108,133.7,97.8,121.2,97.8z"/>
	</g>
	<g display="inline">
		<path d="M-11,51.6l6,13.7l6.3-15.3l6.3,15.3l6-13.7h3.9l-10,21.6L1.3,58.2L-5,73.3l-9.9-21.6H-11z"/>
		<path d="M36.7,51.6h3.5v20.2h-3.5V69c-1.2,1.5-3.4,3.4-6.9,3.4c-5.1,0-9.8-3.6-9.8-10.7c0-7,4.7-10.6,9.8-10.6
			c3.9,0,6,2.1,6.9,3.4V51.6z M23.6,61.7c0,4.3,2.4,7.6,6.6,7.6c4.3,0,6.7-3.6,6.7-7.5c0-5.2-3.6-7.5-6.7-7.5
			C26.7,54.3,23.6,56.8,23.6,61.7z"/>
		<path d="M55.2,56.3c-0.5-1.2-1.5-2-2.8-2c-1.3,0-2.4,0.7-2.4,2.3c0,1.5,1,1.9,3.3,2.9c2.9,1.2,4.3,2.1,5.1,3.1
			c0.9,1.1,1.1,2.1,1.1,3.3c0,4.2-3.1,6.6-7,6.6c-0.8,0-5.4-0.1-7.1-5.2l3-1.3c0.4,1.1,1.6,3.3,4.1,3.3c2.3,0,3.3-1.7,3.3-3.2
			c0-1.9-1.4-2.5-3.3-3.4c-2.4-1.1-4-1.9-4.9-3c-0.8-1-0.9-1.9-0.9-3c0-3.6,2.5-5.7,5.9-5.7c1.1,0,3.9,0.2,5.6,3.7L55.2,56.3z"/>
		<path d="M81.9,66.7c-0.6,1.1-1.5,2.3-2.5,3.3c-1.9,1.7-4.1,2.5-6.7,2.5c-4.9,0-10-3.1-10-10.6c0-6,3.7-10.7,9.8-10.7
			c3.9,0,6.4,1.9,7.6,3.7c1.3,1.8,2,4.9,1.9,7.6H66.3c0,4.2,2.9,6.9,6.4,6.9c1.7,0,3-0.5,4.1-1.5c0.9-0.8,1.7-1.8,2.1-2.8L81.9,66.7
			z M78.4,59.5c-0.6-3.2-3-5.3-5.9-5.3s-5.4,2.2-5.9,5.3H78.4z"/>
		<path d="M90.9,36.4v35.5h-3.5V36.4H90.9z"/>
		<path fill="#F37024" d="M97.5,51.6h3.5v2.2c0.3-0.5,1.8-2.7,4.6-2.7c1.1,0,2.2,0.4,3.1,0.8l-1.7,3.2c-0.8-0.5-1.5-0.7-2-0.7
			c-1.4,0-2.3,0.6-2.8,1.3c-0.6,0.8-1.2,2.1-1.2,5.5v10.7h-3.5V51.6z"/>
		<path fill="#F37024" d="M109.5,61.8c0-6.1,4.5-10.7,10.7-10.7S131,55.7,131,61.8s-4.6,10.6-10.7,10.6S109.5,68,109.5,61.8z
			 M113.1,61.8c0,5,3.5,7.5,7.1,7.5c3.7,0,7.1-2.6,7.1-7.5c0-5-3.4-7.6-7.1-7.6C116.5,54.3,113.1,56.9,113.1,61.8z"/>
		<path fill="#F37024" d="M144.6,56.3c-0.5-1.2-1.5-2-2.8-2c-1.3,0-2.4,0.7-2.4,2.3c0,1.5,1,1.9,3.3,2.9c2.9,1.2,4.3,2.1,5.1,3.1
			c0.9,1.1,1.1,2.1,1.1,3.3c0,4.2-3.1,6.6-7,6.6c-0.8,0-5.4-0.1-7.1-5.2l3-1.3c0.4,1.1,1.6,3.3,4.1,3.3c2.3,0,3.3-1.7,3.3-3.2
			c0-1.9-1.4-2.5-3.3-3.4c-2.4-1.1-4-1.9-4.9-3c-0.8-1-0.9-1.9-0.9-3c0-3.6,2.5-5.7,5.9-5.7c1.1,0,3.9,0.2,5.6,3.7L144.6,56.3z"/>
		<path fill="#F37024" d="M168.9,51.6h3.5v20.2h-3.5V69c-1.2,1.5-3.4,3.4-6.9,3.4c-5.1,0-9.8-3.6-9.8-10.7c0-7,4.7-10.6,9.8-10.6
			c3.9,0,6,2.1,6.9,3.4V51.6z M155.8,61.7c0,4.3,2.4,7.6,6.6,7.6c4.3,0,6.7-3.6,6.7-7.5c0-5.2-3.6-7.5-6.7-7.5
			C159,54.3,155.8,56.8,155.8,61.7z"/>
	</g>
</g>
<g id="Layer_5">
</g>
<g id="Layer_6">
	<g>
		<path d="M139.5,126.7v-3.3c-3.5,3-8,4.8-13.4,4.8c-12.7,0-23.5-10.8-23.5-24.2c0-13.3,10.8-24.2,23.5-24.2c5.4,0,9.9,1.8,13.4,4.8
			v-3.3h4.5V0H0v81.3h6v3.8c2.1-2.9,6.1-5.3,11-5.3v6.7h-0.3c-4.4,0-8.9,2.9-10.7,6.7v33.4H0V144h144v-17.3H139.5z M45.3,128.2
			c-13.4,0-24.2-10.8-24.2-24.2c0-13.3,10.8-24.2,24.2-24.2S69.5,90.6,69.5,104C69.5,117.4,58.7,128.2,45.3,128.2z M79.9,128.2
			c-0.6,0-1.6,0-2.1-0.2v-6.8c0.6,0.3,1.6,0.3,2.1,0.3c4.5,0,7.4-3.2,7.4-7.4c0-7.3-9-11-9-21.2c0-7.5,5.8-13.1,13.9-13.1h0.3v6.7
			h-0.3c-3.6,0-6.7,2.7-6.7,7c0,7.4,8.9,10.4,8.9,20.9C94.3,122.2,88.2,128.2,79.9,128.2z"/>
		<path d="M45.3,86.6c-9.5,0-17.4,7.9-17.4,17.4c0,9.5,7.9,17.4,17.4,17.4s17.4-7.9,17.4-17.4C62.8,94.5,54.9,86.6,45.3,86.6z"/>
		<path d="M109.4,104c0,9.5,7.9,17.3,17.4,17.3c5,0,9.3-2.1,12.7-5.5V92.1c-3.3-3.3-7.7-5.5-12.7-5.5
			C117.3,86.6,109.4,94.5,109.4,104z"/>
	</g>
</g>
<g id="Layer_2" display="none">
	<path display="inline" fill="#F37024" d="M122.9,204.5H38.6c-11.9,0-21.6-9.7-21.6-21.6V98.5c0-11.9,9.7-21.6,21.6-21.6h84.3
		c11.9,0,21.6,9.7,21.6,21.6v84.3C144.5,194.7,134.7,204.5,122.9,204.5z"/>
	
		<text transform="matrix(0.9653 0 0 1 118.3396 173.8899)" display="inline" fill="#FFFFFF" font-family="'MostraNuova'" font-size="62.1553">A</text>
</g>
<g id="Layer_3" display="none">
	
		<text transform="matrix(1 0 0 1 10.2734 161.9958)" display="inline" fill="#FFFFFF" font-family="'MostraNuova'" font-size="63.2329">R</text>
	
		<text transform="matrix(1 0 0 1 20.416 190.8981)" display="inline" fill="#FFFFFF" font-family="'MostraNuova'" font-size="63.6928">O</text>
	
		<text transform="matrix(1 0 0 1 48.1275 204.2691)" display="inline" fill="#FFFFFF" font-family="'MostraNuova'" font-size="62.5145">S</text>
</g>
<g id="Layer_4" display="none">
	<path display="inline" fill="#F37024" d="M124.3,197.2H39.9c-11.9,0-21.6-9.7-21.6-21.6V91.3c0-11.9,9.7-21.6,21.6-21.6h84.3
		c11.9,0,21.6,9.7,21.6,21.6v84.3C145.9,187.5,136.1,197.2,124.3,197.2z"/>
	
		<text transform="matrix(1 0 0 1 11.6677 154.7372)" display="inline" fill="#FFFFFF" font-family="'MostraNuova'" font-size="63.2329">R</text>
	<text transform="matrix(1 0 0 1 21.8102 182.378)" display="inline" fill="#FFFFFF" font-family="'MostraNuova'" font-size="60">C</text>
</g>
</svg>
